<svg xmlns="http://www.w3.org/2000/svg" width="140" height="120" style="enable-background:new 0 0 140 120" xml:space="preserve"><circle style="fill:#ede8e2;stroke:#382827" cx="70" cy="24.1" r="8.1"/><path style="fill:#ede8e2;stroke:#382827;stroke-linecap:round;stroke-linejoin:round" d="M69.1 26.1c-.8-.2-1.6 0-2.2.6-.6.6-.1 4.3-1 7-.7 2.2-3.5 5.6-2.9 5.8l4.7 1.5c.2-1.7.5-5.5.9-7.3.5-2 1.1-4 1.8-5.9-.1-.8-.6-1.5-1.3-1.7z"/><circle style="fill:#ede8e2;stroke:#382827" cx="63.1" cy="49.1" r="11.3"/><path style="fill:#ede8e2;stroke:#382827;stroke-linecap:round;stroke-linejoin:round" d="M101.8 51.9c1.4.1 2.8-.1 4.1-.5v7.3c-.9-.9-13.2-4.1-18.6-5-4.7-.6-9.5-.9-14.2-.9-.5 0-2-.6-1.7-2.8.3-1.7 1.2-2.8 2.8-2.8 1.7 0 13.1 3.3 16.3 3.7 3.7.6 7.5.9 11.3 1z"/><circle style="fill:#ede8e2;stroke:#382827" cx="116.8" cy="56.4" r="12.2"/><path style="fill:#ede8e2;stroke:#382827;stroke-linecap:round;stroke-linejoin:round" d="M31.2 42c-.9-.1-2.6-.2-2.6-1.5-.2-.9.4-3.5 2.6-3.8 1.1-.2 4 1.2 5 1.7 4 1.7 8.1 3.1 12.4 4 2.4.5 5.3.3 6 1 .9.9 1.1 2.2.6 3.3-.6 1.2-2 1.7-3.2 1.2 0 0-.1 0-.1-.1-2.5-1.2-5.1-2.3-7.8-3.2-4.3-1.2-8.5-2.1-12.9-2.6zM101.3 71.4c1.5-1.8 7.5-8.7 8.4-9.1s1.4-.6 2.5.5c.9.8 1.1 2.2.3 3.1l-.3.3c-.9.9-2.7 2.1-4.5 3.4-2.2 1.9-4.2 4-5.9 6.4l-3.6 5.5-3.6-3.6c2.4-2 4.7-4.1 6.7-6.5z"/><circle style="fill:#ede8e2;stroke:#382827" cx="87.7" cy="89.1" r="15"/><circle style="fill:#ede8e2;stroke:#382827" cx="22.2" cy="37.3" r="12.2"/><path style="fill:none;stroke:#382827;stroke-linecap:round;stroke-linejoin:round" d="M119.2 47.2c2.2 0 4.6 1.7 6.1 3.9s.7 5.7 0 6.7M67.4 20c.7-.8 1.7-1.2 2.8-1.1 1.9 0 2.7.9 2.8 1.1M78 96.8c-1.1-1.8-.6-2.6.4-2.2.7.3 1.5 2 3.3 3.2 1.5.9 3.9.6 5.8.6.8 0 1.5.6.8 1.2-.6.5-3 1.6-6.6.5-1.7-.5-3-1.7-3.7-3.3zM65.7 40.6c-1-.6-3.9-.6-6.1 1.1-2.2 1.7-1.8 6.5 0 5.6 1.1-.6.6-2.8 2.2-3.9 1.7-1.2 5.6-1.7 3.9-2.8zM12.2 37.5c-.5-.5 0-2.7 1.1-5.4 1.6-2.7 4.3-4.3 4.3-2.7 0 .5-1.1 1.6-2.7 3.8s-1.7 5.3-2.7 4.3z"/></svg>