<svg xmlns="http://www.w3.org/2000/svg" width="100" height="140" style="enable-background:new 0 0 100 140" xml:space="preserve"><path style="fill:none;stroke:#fff;stroke-miterlimit:10" d="M53.7 129.9S43.1 85.2 49.5 69c4.6-11.1 10-22 16.1-32.4-.3-1.6-.2-3.2.4-4.7 1-2.3 1.1-2.3 1.1-3.4s1.6-1.6 1.9-2.1c.4-.5.8-2.1 1.6-2.5.7-.5 1.4-1.2 1.8-2.1.2-.5 1.6-.7 2.5-1.1 1-.4 1.4-1.1 2.5-.6 1.1.5 1.7-.2 2 0 .3.2.3 1.9-.6 3.5s-1.2 1.9-1.3 2.7c-.3.9-.9 1.6-1.6 2.2-.5.5-.9 1.1-1.1 1.8-.2.6-.7 1.2-1.3 1.5-.6.3-1.1.8-1.4 1.5-.1.2-1.4.7-1.6.7s-1.4.4-1.6 1c-.2.7-2.3 1.6-3.3 1.6"/><path style="fill:none;stroke:#fff;stroke-miterlimit:10" d="M65.6 36.4s4.6-8.4 10.5-12.8"/><path style="fill:none;stroke:#fff;stroke-miterlimit:10" d="M74.2 23.2c-.7.9-1.2 2-1.3 3.1M71.9 27.4c1.1 0 2.1-.2 3.1-.6M70.3 26.8s-.7 2.6-.4 3.2M68.2 32.2c1.2 0 2.4-.5 3.2-1.3M59 48.4c-.6-.5-1.3-.9-2-1.2-.5-.1-.9-.4-1.1-.9-.1-.4-.8-1-1.2-1.2-.4-.3-.6-.9-.5-1.4 0-.5-.2-1-.5-1.3-.5-.6-.7-1.4-.7-2.2.1-1.1.2-1.8-.2-2.2-.6-.9-.7-1.9-.5-3 .2-.9.2-1.8-.1-2.6-.2-.4-.2-1.9.8-2.1s1.6.8 2 2c.2.8.6 1.5 1.3 1.9.6.5 1 1.2 1.3 1.9 0 .6.3 1.2.7 1.7.5.6.7 1.3.7 2-.2.7-.1 1.5.3 2.1.3.4.1 1.4 0 1.6-.1.4 0 .9.2 1.3-.1.4.3 1.2-.5 3.6z"/><path style="fill:none;stroke:#fff;stroke-miterlimit:10" d="M59 48.4c-1.4-2.8-2.6-5.7-3.7-8.6-.6-2.2-1-4.9-1.2-5.3"/><path style="fill:none;stroke:#fff;stroke-miterlimit:10" d="M55.4 39.9c-.7-.6-1.2-1.3-1.5-2.2M55.3 35.4c0 .9-.1 1.8-.4 2.6M56.5 39.7c0 .8-.1 1.7-.4 2.5M55.5 44c.6.5 1.2.8 1.9 1M59.1 48.2s1.8.5 2.1.9c.3.4.8.5 1.3.4.6-.1 1.1 0 1.6.2.5.1 1.1 0 1.4-.4.5-.3 1-.4 1.5-.3.8 0 1.6-.2 2.2-.8.8-.7 1.3-1.2 1.9-1.2 1-.1 2-.6 2.7-1.3.6-.7 1.3-1.2 2.2-1.5.5-.1 1.6-1 1.2-1.9s-1.6-.8-2.8-.4c-.7.3-1.5.3-2.3.1-.8-.2-1.6-.2-2.3.1-.5.3-1.1.5-1.7.5-.7-.1-1.4.2-2 .6-.5.5-1.1.9-1.9 1-.5 0-1.1.7-1.3 1-.3.3-.7.5-1.1.6-.4.2-1.2.3-2.7 2.4z"/><path style="fill:none;stroke:#fff;stroke-miterlimit:10" d="M59.1 48.2s6.9-1.2 9.1-2.1c2.2-.8 4.6-2.1 5-2.1"/><path style="fill:none;stroke:#fff;stroke-miterlimit:10" d="M68.1 46.1c.9.2 1.7.2 2.6-.1M71.7 43.6c-.7.5-1.3 1.1-1.9 1.8M67.5 45c-.7.5-1.3 1.1-1.7 1.8M64.8 48.4c-.7-.1-1.4-.5-2-1M51.4 64.4s-3 .2-3.5-1.8c-.5-2.1-1.9-2.1-2.3-2.5-.9-.7-1.4-1.7-1.4-2.8 0-1.7-.4-2.2-.8-2.6-.5-.9-.7-2-.5-3.1.2-.8.2-1.7-.1-2.5-.2-.2-.5-1.7.2-2.2.7-.5 1.5.3 1.9.7.4.4.9.6 1.5.7.4 0 1 .4 1.4 1.4.2.6.6 1.2 1.2 1.5.2.1.8.3 1.1 1.9s1.4 1.5 1.6 2.3c.3 1.1.3 2.2 0 3.2-.2.9-.1 1.8.3 2.5.1.1.6.4-.6 3.3z"/><path style="fill:none;stroke:#fff;stroke-miterlimit:10" d="M45.1 50.7c1.7 4.7 3.9 9.3 6.3 13.6"/><path style="fill:none;stroke:#fff;stroke-miterlimit:10" d="M46.7 51.9c.3 1 .3 2 .1 3M45.5 55.6c.5.7 1.3 1.2 2.2 1.4M49.3 57c.2.9.1 1.9-.3 2.7M51.4 64.6s2.1 2.1 3.9 1c1.7-1.2 2.8-.4 3.4-.4 1.1.1 2.2-.4 2.9-1.2 1.1-1.3 1.7-1.4 2.3-1.4 1-.4 1.9-1.1 2.3-2.1.4-.8.9-1.4 1.7-1.8.3-.1 1.5-1 1.3-1.8-.2-.8-1.3-.8-1.9-.7-.6 0-1.1-.1-1.6-.4-.2-.2-1-.4-2 .1-.5.3-1.2.4-1.8.3-.3-.1-.8-.3-2.1.7s-2 .1-2.7.7c-.9.6-1.6 1.4-2.1 2.4-.3.8-1 1.4-1.9 1.7-.1.1-.7-.1-1.7 2.9z"/><path style="fill:none;stroke:#fff;stroke-miterlimit:10" d="M65.1 58.6c-4.4 2.4-8.9 4.4-13.7 6.1"/><path style="fill:none;stroke:#fff;stroke-miterlimit:10" d="M63.2 58.4c-.8.6-1.5 1.3-2 2.2M61.6 61.9c-.9.2-1.8.1-2.5-.4M57.8 60.5c-.7.6-1.3 1.4-1.6 2.3M47.5 81.4s-2.9.7-3.8-1.2c-.5-1.1-1.5-1.9-2.7-2.1-1-.5-1.7-1.5-1.9-2.6-.3-1.6-.8-2.1-1.2-2.4-.7-.8-1-1.9-1-3 .1-.8-.1-1.7-.5-2.4-.2-.2-.8-1.6-.1-2.2.7-.6 1.6.1 2 .4.5.3 1 .5 1.6.5.3-.1 1 .1 1.6 1.1.3.6.8 1 1.4 1.2.3.1.8.2 1.4 1.7.6 1.5 1.7 1.2 2 2 .5 1 .6 2.1.5 3.2-.1.9.1 1.8.7 2.4.1.2.7.4 0 3.4z"/><path style="fill:none;stroke:#fff;stroke-miterlimit:10" d="M39 69c2.5 4.3 5.3 8.5 8.5 12.4"/><path style="fill:none;stroke:#fff;stroke-miterlimit:10" d="M40.7 69.9c.4.9.6 1.9.6 3M40.2 73.8c.6.6 1.5 1 2.3 1M44.1 74.5c.3.9.3 1.9.1 2.8M47.5 81.6s2.4 1.8 4 .3c1.5-1.5 2.7-.8 3.3-.9 1.1-.1 2.1-.7 2.7-1.7.9-1.5 1.5-1.7 2-1.8 1-.5 1.7-1.4 2-2.4.2-.8.7-1.5 1.4-2.1.2-.1 1.3-1.2 1-2-.4-.8-1.4-.5-2-.4-.5.1-1.1 0-1.6-.2-.2-.2-1-.2-1.9.4-.5.4-1.1.7-1.7.6-.3-.1-.8-.2-2 1s-2 .5-2.6 1.1c-.8.8-1.4 1.7-1.7 2.8-.2.8-.8 1.6-1.6 2-.2.3-.9.2-1.3 3.3z"/><path style="fill:none;stroke:#fff;stroke-miterlimit:10" d="M60 73.3c-3.9 3.1-8.1 5.9-12.5 8.2"/><path style="fill:none;stroke:#fff;stroke-miterlimit:10" d="M58 73.5c-.7.7-1.3 1.6-1.7 2.5M57.1 77.3c-.8.3-1.7.4-2.6.1M53.1 76.5c-.6.7-1 1.6-1.2 2.5M48.3 98.8s-2.8 1-3.9-.8-2.4-1.5-2.9-1.8c-1.1-.4-1.8-1.3-2.1-2.4-.5-1.6-1-2.1-1.5-2.2-.8-.8-1.2-1.8-1.3-2.8 0-.9-.3-1.7-.8-2.4-.2-.2-1-1.5-.4-2.2s1.6-.1 2 .1c.5.2 1.1.3 1.6.3.3-.1 1 .1 1.7 1 .7.8 1.3 1 1.5 1 .3 0 .8.1 1.6 1.5s1.8 1 2.2 1.8c.6.9.9 2 .9 3.1 0 .9.3 1.7 1 2.4.2.2.8.3.4 3.4z"/><path style="fill:none;stroke:#fff;stroke-miterlimit:10" d="M38.5 87.4c3 4 6.2 7.8 9.8 11.3"/><path style="fill:none;stroke:#fff;stroke-miterlimit:10" d="M40.3 88.1c.5.9.8 1.9.9 2.9M40.2 92c.7.6 1.6.8 2.5.7M44.3 92.3c.4.8.6 1.8.5 2.7M48.4 99s2.6 1.5 4-.1c1.3-1.6 2.6-1.2 3.2-1.3 1.1-.2 2-1 2.5-2 .7-1.5 1.3-1.9 1.8-2 .9-.6 1.5-1.5 1.7-2.6.1-.8.5-1.6 1.1-2.2.2-.1 1.2-1.3.7-2.1s-1.5-.4-2-.2-1.1.2-1.6 0c-.3-.2-1-.1-1.9.7-.4.5-1 .8-1.7.8-.3 0-.8-.1-1.8 1.3-1 1.3-1.9.7-2.4 1.4-.7.8-1.2 1.8-1.4 2.9-.2.9-.6 1.6-1.3 2.2-.2.1-.8.1-.9 3.2z"/><path style="fill:none;stroke:#fff;stroke-miterlimit:10" d="M59.8 89.4c-3.6 3.5-7.4 6.7-11.5 9.6"/><path style="fill:none;stroke:#fff;stroke-miterlimit:10" d="M58 89.7c-.6.8-1.1 1.7-1.4 2.7M57.4 93.7c-.8.5-1.7.6-2.5.4M53.3 93.3c-.5.8-.9 1.7-.9 2.6M51.3 118.1c7.1-11.8 18.9-20.1 32.4-22.9M51.4 118.3s-8.2-6.9-15.9-8.2-18.7-12.8-21.8-32.4M13.6 77.8s-1.3-1-1.7-1c-.4 0-.8-.4-.9-.8-.1-.4-.7-.9-1-1-.4-.3-.5-.8-.5-1.2 0-.4-.2-.9-.5-1.2-.4-.6-.7-1.3-.6-2 .1-1 .2-1.6-.2-2-.5-.8-.6-1.7-.5-2.7.2-.8.2-1.6-.1-2.3-.2-.4-.2-1.6.7-1.9s1.4.8 1.7 1.8c.2.7.5 1.3 1.1 1.7.5.4.9 1 1.1 1.7.1.5.2 1.1.5 1.5.4.5.6 1.1.6 1.8-.2.6-.1 1.3.2 1.9.3.4.1 1.2 0 1.5-.1.4 0 .8.1 1.2.5.2.8.8 0 3z"/><path style="fill:none;stroke:#fff;stroke-miterlimit:10" d="M13.6 77.8c-1.2-2.5-2.3-5-3.2-7.6-.5-2-.9-4.4-1.1-4.7"/><path style="fill:none;stroke:#fff;stroke-miterlimit:10" d="M10.5 70.3c-.6-.5-1-1.1-1.3-1.9M10.4 66.4c0 .8-.1 1.6-.3 2.3M11.5 70.1c0 .7-.1 1.5-.3 2.2M10.5 73.9c.5.5 1.1.8 1.7.9M17.7 92.3c-.7-.1-1.4-.1-2-.1-.4.2-.9.1-1.2-.2-.4-.3-.9-.4-1.4-.4-.5-.1-.8-.4-1-.8-.2-.4-.5-.7-1-.8-.7-.3-1.2-.8-1.4-1.5-.5-.9-.7-1.5-1.2-1.7-.8-.4-1.4-1.2-1.7-2.1-.2-.8-.6-1.4-1.2-1.9-.4-.2-1-1.4-.2-2 .6-.6 1.6 0 2.3.7.5.5 1.1.8 1.8 1 .7.1 1.3.5 1.8.9.3.5.7.8 1.2 1 .6.2 1.1.7 1.4 1.2.2.6.6 1.2 1.1 1.5.4.2.7 1 .7 1.3.1.4.4.7.7.9.3.3 1 .7 1.3 3z"/><path style="fill:none;stroke:#fff;stroke-miterlimit:10" d="M17.7 92.3c-2.3-1.6-4.4-3.3-6.5-5.1-1.4-1.5-2.9-3.3-3.2-3.6M11.3 87.3c-.8-.2-1.5-.5-2.1-1"/><path style="fill:none;stroke:#fff;stroke-miterlimit:10" d="M9.4 83.9c.4.7.7 1.4.8 2.2M12.1 86.6c.4.6.6 1.3.8 2.1M13.1 90.3c.6.2 1.3.2 1.9 0M17.9 92.6c.5-.5 1.1-.9 1.7-1.2.4 0 .8-.4.9-.8.1-.4.7-.9 1-1.1.4-.3.5-.8.4-1.3 0-.4.1-.9.4-1.2.4-.6.6-1.3.5-2-.1-1-.2-1.6.1-2 .5-.8.6-1.8.4-2.7-.2-.7-.2-1.6 0-2.3.2-.4.1-1.7-.8-1.9s-1.4.8-1.7 1.8c-.2.7-.5 1.3-1 1.8s-.9 1.1-1 1.8c0 .5-.2 1.1-.5 1.5-.4.5-.6 1.2-.5 1.8.2.6.1 1.3-.2 1.9-.3.4-.1 1.2.1 1.5.1.4.1.8-.1 1.2-.2.4-.5 1.1.3 3.2z"/><path style="fill:none;stroke:#fff;stroke-miterlimit:10" d="M17.9 92.6s2.5-5.8 2.9-7.8c.4-2 .7-4.4.9-4.8M20.8 85c.6-.5 1-1.2 1.3-1.9"/><path style="fill:none;stroke:#fff;stroke-miterlimit:10" d="M20.7 81c0 .8.2 1.5.4 2.2M19.8 84.8c0 .7.2 1.5.4 2.2M20.9 88.5c-.5.5-1.1.8-1.7 1M25.9 104.6c-.7.1-1.4.3-2 .6-.3.3-.8.4-1.2.2-.5-.1-1-.1-1.4.1-.5.1-.9-.1-1.3-.5-.3-.3-.7-.5-1.1-.4-.7 0-1.4-.4-1.9-.9-.7-.7-1-1.2-1.6-1.2-.9-.2-1.7-.7-2.2-1.5-.4-.6-1-1.2-1.7-1.5-.4-.1-1.3-1-.8-1.8s1.5-.5 2.5-.1c.6.3 1.3.4 2 .4.7-.1 1.4 0 2 .3.4.3 1 .5 1.5.6.3 0 1.4.2 1.7.7.4.5.9.9 1.5 1.1.4.1 1 .7 1.1 1 .2.3.6.5 1 .7.1 0 .9.1 1.9 2.2z"/><path style="fill:none;stroke:#fff;stroke-miterlimit:10" d="M25.9 104.6c-2.6-.8-5.2-1.7-7.8-2.8-1.8-1-3.8-2.3-4.2-2.4"/><path style="fill:none;stroke:#fff;stroke-miterlimit:10" d="M18.3 101.8c-.8.1-1.6 0-2.3-.3M15.3 99.2c.6.5 1 1.1 1.4 1.8M18.9 100.9c.5.5 1 1.1 1.4 1.7M21 104.2c.7-.1 1.3-.3 1.9-.7M26.5 104.5c.2-.5.6-.9 1-1.3.4-.2.6-.6.6-1 0-.5.3-1 .6-1.3.2-.4.2-.9 0-1.3s-.2-.9.1-1.3c.2-.7.2-1.4-.1-2.1-.4-.9-.7-1.4-.5-1.9.2-.9 0-1.9-.5-2.7-.5-.6-.7-1.4-.7-2.2.1-.4-.4-1.6-1.4-1.5-.9.1-1.1 1.2-1 2.2 0 .7-.1 1.4-.4 2-.3.6-.5 1.3-.5 2 .2.5.2 1.1 0 1.6-.1.3-.3 1.5.1 1.9.4.5.5 1.2.4 1.8-.1.4.4 1.2.5 1.4.2.4.3.8.2 1.2-.1.3.1.7 1.6 2.5z"/><path style="fill:none;stroke:#fff;stroke-miterlimit:10" d="M26.2 104.8c.3-2.8.4-5.5.4-8.3-.2-2.1-.7-4.4-.6-4.8M26.6 96.7c.4-.7.6-1.5.6-2.2"/><path style="fill:none;stroke:#fff;stroke-miterlimit:10" d="M25.3 92.9c.3.7.6 1.4 1.1 2M25.6 96.9c.2.7.6 1.4 1.1 1.9M27.8 100.1c-.3.6-.7 1.1-1.3 1.5M41 111.8s-1.6 1.3-1.7 1.9c-.2.5-.6.9-1.2 1-.6.2-1.2.5-1.6 1-.5.4-1.1.5-1.7.3-.5-.1-1.1 0-1.6.3-.8.4-1.7.5-2.6.2-1.2-.4-1.9-.6-2.5-.2-1.1.4-2.3.4-3.4-.1-.9-.5-1.9-.6-2.9-.5-.5.1-2.1-.2-2.2-1.5 0-1.2 1.3-1.6 2.6-1.7.9 0 1.7-.4 2.4-1 .7-.5 1.5-.9 2.4-1 .7.1 1.4 0 2-.3.7-.4 1.6-.5 2.3-.3.7.4 1.6.4 2.3.2.5-.2 1.5.2 1.8.4.5.2 1 .2 1.4.1.8 0 1.7-.3 4.2 1.2z"/><path style="fill:none;stroke:#fff;stroke-miterlimit:10" d="M41 111.8s-7.6 1.9-10.3 2.1c-2.6.1-5.7 0-6.1.1M30.8 114c-.8.6-1.7 1-2.7 1.2"/><path style="fill:none;stroke:#fff;stroke-miterlimit:10" d="M26 113c1 .2 1.9.5 2.8 1M30.9 112.6c.9.2 1.8.5 2.6 1M35.3 114.7c.7-.5 1.3-1.2 1.6-1.9M40.8 111.8c.1-.7.4-1.4.7-2.1.3-.3.4-.8.2-1.3-.1-.5-.1-1.1.1-1.6.1-.5-.1-1-.4-1.3-.3-.3-.5-.8-.4-1.3 0-.7-.3-1.4-.8-1.9-.7-.7-1.2-1.2-1.1-1.7-.2-.9-.6-1.8-1.4-2.4-.7-.4-1.2-1.1-1.4-1.9-.1-.4-1-1.5-1.9-1-.8.4-.6 1.6-.2 2.6.3.7.4 1.4.2 2.1-.1.7 0 1.4.2 2.1.3.5.5 1 .5 1.6 0 .7.2 1.3.7 1.8.6.4 1 1 1.1 1.6 0 .5.7 1 1 1.2.3.3.5.6.7 1 0 .5.1 1.3 2.2 2.5z"/><path style="fill:none;stroke:#fff;stroke-miterlimit:10" d="M40.8 111.8c-.7-2.8-1.6-5.5-2.6-8.2-1-1.9-2.2-4.1-2.3-4.5M38.3 103.7c.1-.8 0-1.6-.2-2.4"/><path style="fill:none;stroke:#fff;stroke-miterlimit:10" d="M35.7 100.5c.5.6 1.1 1.2 1.8 1.6M37.3 104.3c.5.6 1.1 1.1 1.7 1.5M40.7 106.6c-.1.7-.3 1.4-.7 1.9M83.2 95.3s1.5-2.2 2.8-2c.8.2 1.7.3 2.6.2.3-.2 1.6-.7 2.2.1.5.6 1.1 1.2 1.8 1.5.8.5 1.3 1.5 1.3 2.4 0 1 .3 2.1.8 2.9.4.4.5 1-.1 1.3s-1.7-1.2-2.6-1.2c-.9-.1-2.6.1-2.9-.6-.5-.6-1.2-.9-2-1-.8-.3-1.5-.9-2-1.6-.4-.8-1.7-1.6-1.9-2z"/><path style="fill:none;stroke:#fff;stroke-miterlimit:10" d="M83.4 95.2s6.3.1 8.9 3.1"/><path style="fill:none;stroke:#fff;stroke-miterlimit:10" d="M87.6 95.9c1.2-.3 2.5-.3 3.7-.1M89.8 96.6c.4.6.6 1.2.7 1.9M74.3 98.2s.9-2.1.5-2.8c-.4-.8-.7-2.8 0-3.7.9-1 1.7-2 2.4-3.1.4-.8 1.3-1.9 2.1-1.5s.5 2.1.1 3c-.4.7-.5 1.4-.4 2.2.2.8.1 1.7-.4 2.5-.6.7-1 1-1.3 1.5-.7.8-1.8 1.5-3 1.9z"/><path style="fill:none;stroke:#fff;stroke-miterlimit:10" d="M74.3 98.2s3.5-5.4 3.9-8.7"/><path style="fill:none;stroke:#fff;stroke-miterlimit:10" d="M76.4 91.3c.2.7.4 1.5.4 2.2M76.1 95c.6-.3 1.2-.7 1.8-1.2M74.5 98.3s3.7-1.6 5.3.4c1.1 1.3 1.6 1.9 2 2.1.7.1 1.4.7 1.6 1.4.2.9.3 1.8.3 2.7.1.7 1.3 1.9.4 2.7s-2.9-.1-3.6-1.2c-.4-.8-1.1-1.4-1.9-1.7-.7-.2-2.1-1.1-1.9-2.3s-.7-1.5-1.3-1.7c-.5 0-.9-.9-.9-2.4z"/><path style="fill:none;stroke:#fff;stroke-miterlimit:10" d="M74.5 98.3s5.2 2 6.9 5.9"/><path style="fill:none;stroke:#fff;stroke-miterlimit:10" d="M77.7 100.1c.4.6.5 1.3.4 2M79.9 102c.8.1 1.5.4 2.1.9M62.7 105s.6-2.5 0-3.4-1.4-3-.8-4.2c.8-1.3 1.5-2.7 2.1-4.1.2-1 1.1-2.4 2.1-2.2s1 2.3.7 3.3c-.3.8-.2 1.7.1 2.5.4.9.4 2 .1 2.9-.4.6-.8 1.3-1.2 2-.3.7-.7 1.6-3.1 3.2z"/><path style="fill:none;stroke:#fff;stroke-miterlimit:10" d="M62.7 105s2.9-7 2.7-10.8"/><path style="fill:none;stroke:#fff;stroke-miterlimit:10" d="M63.7 96.7c.4.8.8 1.6 1 2.5M64.1 101c.6-.5 1.2-1.1 1.8-1.7M63 105.2s3.9-2.6 6.1-.7c1.5 1.3 2.2 1.9 2.8 1.9.9 0 1.7.5 2.1 1.3.7 1.2.6 2.4.9 3.1s1.8 2 1.1 3c-.8 1.1-3.4.5-4.3-.5-.6-.8-1.5-1.4-2.5-1.5-.8-.1-2.6-.8-2.7-2.2s-1.1-1.6-1.9-1.7c-.7-.2-1.3-1.2-1.6-2.7z"/><path style="fill:none;stroke:#fff;stroke-miterlimit:10" d="M63 105.2s6.4 1.2 9.2 5.2"/><path style="fill:none;stroke:#fff;stroke-miterlimit:10" d="M67 106.5c.5.6.8 1.4.9 2.2M70 108.2c.9-.1 1.8.1 2.6.6"/></svg>