<svg xmlns="http://www.w3.org/2000/svg" width="140" height="120" style="enable-background:new 0 0 140 120" xml:space="preserve"><path style="fill:#ede8e2;stroke:#000;stroke-linejoin:round" d="M35.4 29c.8-1.2 1.7-2.4 2.7-3.5.4-.4.7-.8 1-1.1l.1-.1.5-.5 45.4 1.8c2 1.6 3.5 3.7 4.5 6.1.5 1.7.8 3.4.7 5.2v47.5c0 3.7-1.3 5.7-2.8 6.9-1.1.8-2.3 1.4-3.6 1.8-.3.1-.7.2-.9.3-1.2.4-2.4.7-3.6.8-1.7.3-3.7.6-5.8.8-3.7.5-7.4.8-11.1.9-5 0-14.4 0-22.8-3.5-1.9-.8-3.5-2-4.8-3.5-.9-1-1.5-2.3-1.6-3.7V45.5c0-2.9 0-6.2.3-9.2.2-3 .8-5.6 1.8-7.3z"/><path style="fill:none;stroke:#000;stroke-linecap:round;stroke-linejoin:round" d="M36 85.3V48.9c.1-1 .5-2 1.2-2.7 1-1.2 2.2-2.2 3.5-3.1 5.4-3.6 12.4-4.2 18.3-1.6.4.2.9.4 1.3.6 1.5.7 3.1 1.3 4.8 1.7 1.2.3 2.4.8 3.4 1.6h.1c.8.7 1.9 1.1 3 1.2.3 0 .6-.1.8-.2.2-.2.4-.4.4-.7 0-.2 0-.5-.1-.7l-.3-.6c-.1-.1-.1-.3-.2-.4l-.1-.1c0-.1-.1-.1-.1-.1 1.6-.2 3.2-.6 4.8-1.2 1.5-.5 2.9-1.2 4.1-1.7l.7-.3c1.1-.4 2.2-.7 3.4-.8 1-.1 1.9-.2 2.6-.2v45.6c-.7 1.2-1.6 2.1-2.7 2.8-1.3.9-2.7 1.6-4.2 2.1-1.5.6-3 1-4.3 1.4l-.9.3c-.9.3-1.7.5-2.3.7-.5.2-1 .3-1.5.3-.7.1-1.5.1-2.5.2-1.9.1-4.3.1-6.8 0-4.8-.1-9.6-.4-14.3-1.1-3.1-.5-6-1.7-8.7-3.4-.9-.6-1.8-1.3-2.6-2.1-.2-.2-.5-.5-.7-.8 0 0 0-.1-.1-.3zm35.9-41.9h0zm-.3.4h0z"/><path style="fill:#ede8e2;stroke:#000;stroke-linejoin:round" d="M32 20c.7-.4 7.3-3.2 10.5-4.4h39.9c2.6 1.5 6.7 4.6 7.7 5.3.5.3-.8 1.6-1.4 1.8.8.2 2.1.8 2.1 1.4 0 .7-1.8 2.5-2.5 3.2-.7.5-1.6.7-2.5.7-.3.4-.6.7-1.1.9-1.9.7-5.6 0-6.7 0s-.4 0-1.8.7c-1.5.8-4.2-1.2-6-1-.7 0-3.1 1.5-4.5 1.5-1.8 0-2.4-1.1-2.8-1.1-1.1.1-2.1.4-3.2.7-1.2.4-3.8 1.7-6.6 1.4-1.7-.4-3.2-1.1-4.7-2.1 0 0-2.4 2.5-3.1 2.5-.8 0-5.3-3.2-7-4.2-1.9-.9-3.9-1.6-6-2l2.5-1.8-1.4.5c-.2-.9-2.2-3.6-1.4-4z"/><path style="fill:none;stroke:#000;stroke-linecap:round" d="M84.6 19.8c.9.9 3.6 2.8 4.2 2.8M39.7 19.5c-1.4 1.4-2.9 2.7-4.6 3.9M49.2 16.7c-.4 1.1.7 6.3 1.4 7.4M76.2 19.5c-1.4.4-2.1.7-2.1 1.8 0 .8 3 5.3 4.6 7.4M63.6 20.2c-.4.5-.8 1.1-1.1 1.8M62.9 28.9c-.4-1.7-.6-3.5-.7-5.3"/><path style="fill:#ede8e2;stroke:#000" d="M45.5 6h34C82 6 84 8 84 10.5v1c0 1.4-1.1 2.5-2.5 2.5h-38c-1.4 0-2.5-1.1-2.5-2.5v-1C41 8 43 6 45.5 6zM42.4 14h40c.8 0 1.5.7 1.5 1.5s-.7 1.5-1.5 1.5h-40c-.8 0-1.5-.7-1.5-1.5s.7-1.5 1.5-1.5z"/><path style="fill:none;stroke:#000;stroke-linecap:round" d="M42.5 14.5c.2.7.8 2.2 1.4 2.5M46 14.5c.2.7.8 2.2 1.4 2.5M49.6 14.5c.2.7.8 2.2 1.4 2.5M53.8 14.5c.2.7.8 2.2 1.4 2.5M58 14.5c.5 1 1.2 1.9 2.1 2.5M62.9 14.5c.5 1 1.2 1.9 2.1 2.5M67.8 14.5c.1 1 .6 1.9 1.4 2.5M72.7 14.5c.1 1 .6 1.9 1.4 2.5M76.9 14.5c.1 1 .6 1.9 1.4 2.5M81.1 14.5c.1 1 .6 1.9 1.4 2.5"/><path style="fill:#ede8e2;stroke:#000;stroke-linecap:round;stroke-linejoin:round" d="m112.2 92.7 3.2 4.6-5.6 1.2v1.9l-3.5-1.8-1.1 2.5-3.2-2.8-1.4 2.1-4.2-2.1-1.1 1.8c-2.8-.8-6.5-5-8.1-7L84 82.2l10.9-4.6 8.1.3 1.1 3.6h3.5v2.7l2.1-.3.3 2.8 2.5 1.1-1.8 1.8 3.5 2.1-2 1z"/><path style="fill:none;stroke:#000;stroke-linecap:round;stroke-linejoin:round" d="M89.1 84.3c2.4.5 4.7 1.2 7 2.1 2 .8 6.9 3.7 9.5 5.3M101.7 86c-2-.2-4-.2-6 0"/><path style="fill:none;stroke:#000;stroke-linecap:round;stroke-linejoin:round" d="M95.4 86.4c1.4 1.3 4.3 4.2 4.6 5.6"/><path style="fill:#ede8e2;stroke:#000;stroke-linecap:round;stroke-linejoin:round" d="m62.2 91.6-2.8 4.9 4.6.5 1 2.7 3.5-.7v2.5l3.9-2.1 1.8 2.1 3.5-2.5 1.4 2.1c6.7-1.4 10.9-9.5 11.6-13.3s-1.4-7-4.6-9.1c-2.5-1.7-10.5-1.2-14.7-.3l-.3 3.2-4.6 1.1V85l-4.2 2.1 1.4 1.1-3.5 2.5 2 .9z"/><path style="fill:none;stroke:#000;stroke-linecap:round;stroke-linejoin:round" d="M90.2 85c-2.8 0-8.3 1.3-12.2 3-2.6 1.1-5.1 2.5-7.5 4M71.6 87.4c1.5-.2 5-.6 7 0"/><path style="fill:none;stroke:#000;stroke-linecap:round;stroke-linejoin:round" d="M83.1 86.5c-2.1 2.1-4 4.5-5.6 7"/><path style="fill:#ede8e2;stroke:#000;stroke-linecap:round;stroke-linejoin:round" d="m88.4 55.9 2.5-2.5 1.8 2.5h1.1v2.5l2.1.3.3 2.1 1.4.3v3.2l1.4.3v3.2h1.8l-1.1 6 1.4.3c-3.5 10.5-9.5 11.6-13 11.6s-8.4-6.3-9.1-8.1c-.6-1.4-.7-6.9-.7-9.5l1.8.3-.4-3.4h1.4v-4.2l1.8.3 1.1-3.2 1.4.7 1.1-3.2 1.9.5z"/><path style="fill:none;stroke:#000;stroke-linecap:round;stroke-linejoin:round" d="M89.8 60.8c-1.1 3.3-1.6 6.7-1.8 10.2 0 4.6 0 11.6.3 14.4"/><path style="fill:none;stroke:#000;stroke-linecap:round;stroke-linejoin:round" d="M91.9 63.6c-1.1 1.2-3.2 3.7-3.5 4.6M84.6 69.9c.9 1.2 3.2 4.1 3.5 5.3M93 73.1c-.9 1.1-1.8 2.3-2.5 3.5-.8 1.2-1.5 2.5-2.1 3.9"/><path style="fill:none;stroke:#000;stroke-linejoin:round;stroke-miterlimit:10" d="M42.5 100.5c2.7 1.3 4 5 4 5 0 3-3.5 5.5-8.5 7.5l-2.5-1-2 1.5L31 112l-2 1.5-2-1.5-3 .5 2-3V107l2.5-2 1-2.5 2-.5.5-2s5.5-2 10.5.5z"/><path style="fill:none;stroke:#000;stroke-linecap:round;stroke-miterlimit:10" d="M49 106s-11.1-3-17 1.5"/><path style="fill:none;stroke:#000;stroke-linecap:round;stroke-miterlimit:10" d="M40.3 105c-1.7-1.2-3.8-1.7-5.8-1.5M37.5 105.7c-.9.9-1.5 2-1.9 3.2"/></svg>