<svg xmlns="http://www.w3.org/2000/svg" width="100" height="140" style="enable-background:new 0 0 100 140" xml:space="preserve"><path style="fill:none;stroke:#fff;stroke-miterlimit:10" d="M31.9 68c-1.1 1-1.9 2.3-2.3 3.7-.9 3.7 2.2 3.8 2.6 2 0-.2 0-.4.1-.5.1-1.3.1-2.6 0-3.9-.2-.7-.9-3.2-.2-3.4.6-.3 1.5.2 1.7 1.3 0 0-.6-3.4.6-3.4s1.9 2 1.9 2.8c0 0-.3-3.2.4-3.2s1.6.4 1.3 3.7c-.3 3.3-.2 2.8-.2 2.8l.2.1c1.4-.9 2.6-1.9 2.8-3.1.6-3.3 2.3-5.6 2.9-4.7.4.6.5 1.3.3 2 0 0 1.9-3 2.8-2.5.9.4-.1 3.4-.8 4.2 0 0 1.9-1.5 2.6-.9s-.6 3.4-2.5 4-3.1 1.6-2.9 2 3.8-1.3 4.6-.5c.7.8.7 2 0 2.7-.3.3-.6.5-1 .5-1.4.3-2.9.3-4.3.2 0 0 4.9-.3 4.7.6-.1.9-.9 1.6-2.8 1.5 0 0 1.4.4.8 1.2-.6.9-2.9 1.1-4.8 1 0 0 2.3 1.1 2 2s-3.5.1-5.4-.1-5 1.5-5 6.9c0 0 .3 4.5 3.2 2.5 0 0 13.2-9.1 15.9-10.7 2.6-1.6 5.7-5.1 5.2-6.8s-4.1-1.5-4-2.6.6-1.4 1.8-1.4c0 0-2.7-.4-2.4-1.8s1.7-.6 1.7-.6-4.1-1.6-3.4-3.4 4.4-.3 5.4.4 1.4-.2 1.2-.5c-2.1-1.1-4.2-2-6.5-2.7-1-.2-3.5-1.1-3.6-1.9s1.4-1.1 2-.9c0 0-2.9-2-2.6-2.9s2.8.2 3.6.7c0 0-.6-1.2.1-1.4s3 2.2 3.6 1.8c.7-.4-1.7-2.7-3.9-3.3s-1.1-2.2 0-2c0 0-1.2-1.1-.9-1.9s2.2-.5 3.9 1.4c0 0-3.7-4-3.5-5.4.4-1.4 1.9-.4 2.3.4 0 0-1-2.6 0-2.7 1.1-.1 2 .7 2.2 1.8 0 0 0-1.4.8-1.4 1.2.6 2.1 1.7 2.2 3.1.4 2.4.6 2.2.9 2.1.4-.1.3-3.1 1.2-3.1s1.7.5 1.6 2.6c0 0 0 .7.7.4s.8.4.5 1.9-1.1 5.3-.1 5.5c0 0 .8-.1.7-3s1.1-3.4 1.9-2.8c.7.8 1.1 1.8 1.1 2.9 0 0 1-2.9 1.8-2.6s.9 3.2 0 4.5c.6-.5 1.4-.5 1.9 0 .9.8-1.8 4.7-4 6.1 0 0 4.1-2.8 5.1-2.2S68.3 60 67 60.9c0 0 2.5-.6 2.3.3s-.4 1.5-2.3 2.2c0 0 1.4.3.9 1s-2.7.5-3.8 1.7-2.7 4.2-.9 4.2c3.6 0 3.7-5.3 3.7-5.3"/><path style="fill:none;stroke:#fff;stroke-miterlimit:10" d="M38 64.2c1.1-.1 2.9-.8 2.8-1.6s-2.6-.4-2.6-.4c.7-.4 2.3-1.1 1.9-2s-2-.1-3 .4-2.9 1-2.9.4 3.2-1.7 3.4-3.3-1.3-1.4-1.8-.9c-.4.4-1.5.7-1.5-.2s1.4-3.4 0-3.9-2.8 3.5-3.2 3.1c-.4-.5-.4-2.5-1.8-2.2-1.3.4-.8 3.5-1.1 5.7-.4 2.2-1.8 3.1-2.8 3.1s-1.3-1.8.4-3.8.9-3.6-1-4.3c-1.8-.8-3 2.7-3.5 2.6s0-1.7-.4-2.5c-.5-.7-1.8.7-2.9-.1s-1-1.8-2.5-1.5c-1.5.3 0 1.9-1.3 2s-3.9-1.5-4.2-.4 1.9 1.9 1.5 2-3.7-.8-4.2 0 1.8 2.1 1.8 2.1-3.6 0-2.9 1.3 7.2 1.4 6.8 2c-.4.7-4.6.4-4.6.4s-4.2-.9-4.6.3 1.3 1.7 1.3 1.7c-3.4 0-4.3.8-4.4 1.9 0 1 4 .4 4 .4-2.2.7-2 1.7-1.1 2s5.2-2.4 5.1-1.2 6.4.3 6.4.3c10 .4 10.9 7.8 11.8 9.6s-.1 3-1.1 2.7-1.9-2-3.4-5.3-3.7-3.5-4.4-3.3.4 2.3.3 2.3-.5-.5-.5-.5c-.6-1.5-3.1-4-3.6-3.7s.4 1.9.1 2c-.2 0-.5-.4-.5-.4-.4-.7-1.5-1.9-2.2-1.5s.4 2.8.4 2.8-.9-.5-1.1 0 .4 2.1 1.8 3.3 2 1.8 1.8 2.1c-.2.3-.6 0-1.3-.3s-3.3-3.3-4.7-3.9-1.1.9-1.1.9c-1.8-.4-2.9-.1-2.9.7s.6.1 2.3 1.4c1.8 1.3.6 1.5.6 1.5-1.3-.5-5.7-1-5.8.3-.2 1.1 1.7 1.4 1.7 1.4-1.1.3-2.8 1.6-2.2 2.3s3.4 0 3.4 0-1.8.6-1.3 1.8c.5.7 1.4.9 2.1.5 0 0 3.2-3.4 4.4-2.7s-.5 1.8-.5 1.8-3 2.7-2.5 3.8c.6 1.1 2.6-.2 2.6-.2-.3.6-.3 1.2 0 1.8.5.8 1.2-.3 1.2-.3s1.2-2.7 2.8-3.4 1.4.9 1.4.9-2.8 2.4-2.9 4 2-.7 2-.7c-.4 1.7 1.4 1.8 1.9.5 0 0 1.7-2.3 3.2-2.7s.7 1.3.3 2.1.5 1.6 1.3.8c.9-.8 1.8-2.5 2.2-2 .6.4 1.4.2 1.8-.4l.1-.1c.3-.7.6 2.9 3.2 1.9s2.6 5 2.6 5c0 .7.3 1.3.8 1.8.7.5 1.8-.4 1.8-.4l1.5-1.1 16-10.8s6.7-3.7 8-2.7-1.8 2-1.3 3.1 2.1.2 2.1.2c-.8.3-1.3 1-1.5 1.8-.4 1.3 1.3.9 1.3.9s-1.2 3.2.9 3.1 1.1-2.8 2.4-4.3 1.7.2 1.8 1-1.3 3-1.3 4.5 1.5.4 1.5.4-.4 1.6.3 1.9 1.4-1.2 1.4-1.2c-.2.7 0 2.9 1.4 3.4 1.3.4 1.4-2.5 1.4-2.5 1.1 1 1.6-1 1.6-1s.7 1.1 1.4.4-1-4.2-1.8-5.4-.8-3.4 1.4-2.9 2 6.5 2 8.1c-.1.8.5 1.6 1.3 1.7.1 2.3 2.1 1.1 2.1 1.1 0 .9.3 2.7 1.4 3.3s1.1-3.7 1.1-3.7.7 2 1.7 1.6c1-.4.2-1.9.7-2.7s0-2.7-.7-3.5-1.7-3.2-.8-3.4 2.3 2.7 3.2 4.3c1 1.5 1.8.2 1.8.2.2.7 2.1 3.5 3.2 3s-1-4.6-1-4.6 4.1 3.1 5.3 2.4-1-2.4-1-2.4c1.8.4 3.7.6 3.8 0 .2-.6-2.3-1.6-2.7-1.6-.5 0 1.7-.5 2.1-1.6s-3.3-.4-4.6-.4-1.5-.5.6-1.2 1.9-1.9 1.1-2.6-5.8 1.5-7 .8-1.5-1.1 1.9-1.4 3.6-1.8 3.6-1.8c.7-1.6-3.8 0-3.1-1.2.4-.8 1.6-2 1.8-3.2"/><path style="fill:none;stroke:#fff;stroke-miterlimit:10" d="M77.8 73c-3.6-.4-7.1-.3-8.8.8-4.5 2.9 4.8 2.6 6.1 1.8s4-5 6.3-4-.9 3-.9 3 2.7-2.4 4.1-1.8.2 2.4-1.8 3.8c-1.9 1.5 4.6-4.2 6-2.7.4.4.6 1 .4 1.6"/><path style="fill:none;stroke:#fff;stroke-miterlimit:10" d="M65.8 49s-.9-3.2 1.3-3.3 1.9 2.6 1.9 2.6-.1-3.5 1-3.4c1.1 0 1.5 1.1 1.3 3.4 0 0 .4-2.2 1.4-1.9 1.1.4.7 2.9.4 3.7-.4.9-.3 2.2.5 2.2s.2-4 1.7-4 1.1 2.9.6 4.5c0 0 .7-1.9 1.9-1.5 1.1.4.5 2.3-1.2 3.8s-3.3 4.2-3.2 5.1 1 1.4 1.9.7 2-3.8 2-4.9.4-2.2 1.4-2.2.9 2.7 1.5 2.7.6-4.5 2.5-4.4c1.8.1 1.9 1.5 1.8 3.8 0 0-.3 1.5.1 1.6s1.1-1.4 1.9-1.1 1.1 1.7-.4 2.9l-2 1.8s4-3.9 5.7-3.4 0 2.2 0 2.2 3-1.5 3.9-.7c.8.8-1.3 2.1-1.3 2.1s4.7-.2 4.9 1.1-4 2.5-4 2.5 2.9-.1 3.2.6-.7 1.1-2.1 1.4c0 0 4.7.1 4.8 1.4 0 1.3-3.5 1.4-4.4.8 0 0 1.2 1.3.3 1.6S85.2 68.2 84 69c-1.2.7.3 1.4 2.8 1.5s7.9.1 7.8 1.6c-.4.5-1.1.8-1.8.8 0 0 5.7-.1 5.7 1.3s-2.9.9-2.9.9 4 2.5 3.1 3.3-3.6-.5-4.3-1.7c0 0 2.6 2.7 1.4 3.3s-5.2-2.2-5.8-3.4c-.1-.2-.4-.4-.9-.6M15.7 57.5s9.6 5.1 11.8 13.5 2.4 10.2 2.4 10.2M11.5 79.8s11.9-1 16.4 3.2M33.7 78.8s2.6-4.4 5.6-6.5M57 51s5.2 21.2-1.1 26.5c0 0-1.7 1.3-3.5 2.7"/><path style="fill:none;stroke:#fff;stroke-miterlimit:10" d="M84.4 64.9s-16.5 4.4-27.8 11.6M82.6 85.1S73 76.8 60.8 78"/></svg>