<svg xmlns="http://www.w3.org/2000/svg" width="100" height="140" style="enable-background:new 0 0 100 140" xml:space="preserve"><path style="fill:none;stroke:#fff;stroke-miterlimit:10" d="M35.9 63.2s-9.1-1.8-15 4.1S10.1 75 10.5 86.1s4.1 14.5 10.4 17.2c5.2 2.2 5.4 2 5.1 3.8-.4 2-1.2 3.8-2.3 5.5-.6 1-.7 2.2-.2 3.3 0 0 .2.5.8 0s2.6-2.4 2.7-3c.1.9.8 1.7 1.6 2.1 0 0 .2-.1.2-.6.3-1 .9-1.8 1.8-2.3 1.8-.8 2.8-2.6 2.5-4.6 0 0 .3 3.9 2 4.9 1 .5 1.9 1.3 2.6 2.3.1.3.3.1.3-.3 0-.9.1-1.9.2-2.8.2.8.6 1.4 1.2 2 .7.9 1.2 2.1 1.4 3.3 0 0 .1.4.3.1.4-1.1.4-2.3 0-3.5-.5-1-3.5-4-2.2-6.7 0 0 6.2.5 10.4-2.8s9.2-6.3 9.4-17.8c.3-11.4-6.7-20.4-22.8-23z"/><path style="fill:none;stroke:#fff;stroke-miterlimit:10" d="M27.5 114.1s-.1 2.9 1 3.7c0 0 .2.1.4-.8s.9-1.1 1.4-1.6c.8-1 1.1-2.4.7-3.6M32.5 110.6s-.2 4.6 1.4 6c1.6 1.3 1.5 2 2 2.1.5.1.4-.8.5-1.2s1.4-2.2 1-3.1M38.2 114.1s1.7 2.4 2.8 2.8M27 112.9s-.2-3.6.7-5.1M40.9 64.2s.3-11.5 15.9-17.9S84 54.3 85 62.5s-1 12.9-1 12.9M73.9 87.1c-7.4 7.2-15.4 4.2-15.4 4.2"/><path style="fill:none;stroke:#fff;stroke-miterlimit:10" d="M86.3 82.3s2.9-1.2 3.1-2.7c.2-.8.1-1.6-.3-2.3-.4.3-.9.5-1.4.4-1.2-.1-2.4.1-3.6.4-.3.3.8-3.1-1.4-4.8-.5 1.3-1.2 2.6-2 3.7-.7.7-1.3 1.6-1.6 2.6.1.2-4-1-6.3.9 0 1.9.5 3.7 1.4 5.3"/><path style="fill:none;stroke:#fff;stroke-miterlimit:10" d="M83.2 87.3c1.2.5 2.5.6 3.8.3l1.4-.4s0-1.1-.1-1.8c-.6-1.2-1.2-2.4-2-3.5M68.3 82.4c2.5.2 4.8 1.5 6.1 3.6 0 0-.6.4-.7 2.3.1 1.1-.4 2.2-1.1 2.9-.5.4 3.6-1.6 4.4-3-.1 1 .1 1.9.5 2.8.6.8 2.7 3.1 2.7 3.1s2.1-2.8 2.8-3.9c.4-.9.5-1.8.3-2.8M78 72.7s.9 3.1 3.5 3.5M34.8 63s-.2-13.6-1.7-19.2c-1.5-5.5.5-17.9 2.4-21.8"/><path style="fill:none;stroke:#fff;stroke-miterlimit:10" d="M32.6 35.4s.5 4.8 6.1 9.3 7.9 5.7 8.1 7.9M33.7 28.6s1.5 4 5.4 4.4c.8-1.8 2.7-2.9 4.7-2.5 3.7.4 13.7 7 17.5 5.9 0 0-3.6 7.5-11.9 5.5-8.4-2.1-10.3-7.6-10.3-8.9"/><path style="fill:none;stroke:#fff;stroke-miterlimit:10" d="M39.1 33c3.4.1 6.8.9 9.9 2.4 4.5 2.4 6.3 2.8 7.8 2.6M32.8 34.7s-3.4 5.9-5.9 7c-2.5 1.1-10 3.8-13.2 9.1s-1.1 9.8-3.7 11.3c0 0 15-1.5 17.1-16.3 0 0 .3-3.1.3-4.4 0 0-6 4.4-8.2 9.7-1.6 3.7-2.9 6.2-3.9 6.8"/></svg>