<svg xmlns="http://www.w3.org/2000/svg" width="140" height="120" style="enable-background:new 0 0 140 120" xml:space="preserve"><circle style="fill:none;stroke:#151515;stroke-miterlimit:10" cx="66.2" cy="57.2" r="34.3"/><circle style="fill:none;stroke:#151515;stroke-miterlimit:10" cx="66.2" cy="57.2" r="37"/><path style="fill:none;stroke:#151515;stroke-miterlimit:10" d="M107.9 56.5c0 23-18.7 41.7-41.7 41.7S24.5 79.5 24.5 56.5s18.7-41.7 41.7-41.7 41.7 18.7 41.7 41.7z"/><path style="fill:none;stroke:#151515;stroke-width:1.005;stroke-miterlimit:10" d="M38.4 37.1c7.5-.8 18.4-1 26.7 1.6 6.6 2 18.3 2.3 30.1-.1"/><path style="fill:none;stroke:#151515;stroke-miterlimit:10" d="M32 55.2c9-.9 22.4-1.2 32.6 1.4 7.8 2 21.6 2.2 35.7-.2"/><path style="fill:none;stroke:#151515;stroke-width:.993;stroke-miterlimit:10" d="M35.6 72.8c8.3-.5 18.5-.3 26.6 1.8 7.4 1.9 20.1 2.2 33.3.1"/><path style="fill:none;stroke:#151515;stroke-miterlimit:10" d="M70.2 15.1v-2.6c.1-1.4.7 0 1.4-2.4.6-2.4-5.4-2.6-5.4-2.6h-.1s-6 .1-5.4 2.6 1.2 1.1 1.4 2.4c.1.8.1 1.7 0 2.5M92.4 89.4c1.1 1.3 1.8 2.9 1.8 4.6.2 5.4 8.8 6.5 8.8 8.9v6.8s-1.5.1-7.2.1H84.1s-2.3-6.4-16.3-6.4h-3.4c-14 0-16.3 6.4-16.3 6.4H36.5c-5.7 0-7.2-.1-7.2-.1v-6.8c0-2.3 8.6-3.5 8.8-8.9.1-1.9.9-3.7 2.2-5"/><path style="fill:#ede8e2" d="M73.9 70c0 4.3-3.5 7.8-7.8 7.8s-7.8-3.5-7.8-7.8 3.5-7.8 7.8-7.8 7.8 3.5 7.8 7.8"/><circle style="fill:none;stroke:#151515;stroke-miterlimit:10" cx="66.2" cy="70" r="7.8"/><path style="fill:#ede8e2" d="M71.2 70c0 2.8-2.2 5-5 5s-5-2.2-5-5 2.2-5 5-5c2.7 0 5 2.2 5 5"/><circle style="fill:none;stroke:#151515;stroke-miterlimit:10" cx="66.2" cy="70" r="5"/><path style="fill:none;stroke:#151515;stroke-miterlimit:10" d="M69.8 76.8v4.6c0 2.1-1.3 3.8-3 3.8h-1.3c-1.7 0-3-1.7-3-3.8v-4.5"/><path style="fill:#ede8e2" d="M97.1 79.1s0 5.5 1.3 8.3 4.3 4.5 5.2 5.3c.9.7 1.4 1.7 1.4 2.8-.2 1.1-.9 2.2-1.8 2.8-1.6 1.2-3 2.6-4.3 4.1-.9 1.3-1.4 2.8-1.6 4.3-.1 1.6-.1 3.1 0 4.7l18.3.2c.1-1.9.1-3.9-.2-5.8-.5-2.3-1.8-3.7-3.6-5.3-1.2-1-4-3-4.1-5.1 0-2.1 3.2-4 4.5-5.3 1.5-1.5 2.6-3.4 3.2-5.5.3-1.9.3-3.8.1-5.7l-18.4.2z"/><path style="fill:none;stroke:#000;stroke-width:1.098;stroke-linecap:round;stroke-linejoin:round" d="M97.1 79.1s0 5.5 1.3 8.3 4.3 4.5 5.2 5.3c.9.7 1.4 1.7 1.4 2.8-.2 1.1-.9 2.2-1.8 2.8-1.6 1.2-3 2.6-4.3 4.1-.9 1.3-1.4 2.8-1.6 4.3-.1 1.6-.1 3.1 0 4.7l18.3.2c.1-1.9.1-3.9-.2-5.8-.5-2.3-1.8-3.7-3.6-5.3-1.2-1-4-3-4.1-5.1 0-2.1 3.2-4 4.5-5.3 1.5-1.5 2.6-3.4 3.2-5.5.3-1.9.3-3.8.1-5.7l-18.4.2z"/><path style="fill:#ede8e2" d="M97.4 111s7.3-4.6 9.3-4.5c1.8.2 3.4.9 4.8 2.1 1.1.8 2.3 1.3 3.6 1.7.5 0 .8 1.5.8 1.5l-18.5-.8z"/><path style="fill:none;stroke:#000;stroke-width:1.098;stroke-linecap:round;stroke-linejoin:round" d="M97.4 111s7.3-4.6 9.3-4.5c1.8.2 3.4.9 4.8 2.1 1.1.8 2.3 1.3 3.6 1.7.5 0 .8 1.5.8 1.5l-18.5-.8z"/><path style="fill:#ede8e2" d="M96.7 77.4c-.2.6-.2 1.2.1 1.8.5.4 2.7.5 4.9.5s14.1.1 14.4-.4c.1-.6.2-1.3.1-1.9H96.7z"/><path style="fill:none;stroke:#000;stroke-width:1.098;stroke-linecap:round;stroke-linejoin:round" d="M96.7 77.4c-.2.6-.2 1.2.1 1.8.5.4 2.7.5 4.9.5s14.1.1 14.4-.4c.1-.6.2-1.3.1-1.9H96.7z"/><path style="fill:#ede8e2" d="M116.4 112.5h-.3c0-.4-.1-.8-.3-1.2-.2-.2-11.1-.4-13.3-.4s-5.9 0-6.1.6c-.1.3-.1.7 0 1h-.2c-.2.2-.2.6.1.8l.1.1h10.8c.5 0 9 .2 9.3 0 .2-.2.2-.8-.1-.9"/><path style="fill:none;stroke:#000;stroke-width:1.098;stroke-linecap:round;stroke-linejoin:round" d="M116.4 112.5h-.3c0-.4-.1-.8-.3-1.2-.2-.2-11.1-.4-13.3-.4s-5.9 0-6.1.6c-.1.3-.1.7 0 1h-.2c-.2.2-.2.6.1.8l.1.1h10.8c.5 0 9 .2 9.3 0 .2-.2.2-.8-.1-.9zM109.1 92.8c-.8.5-1.6 1-2.5 1.3-1.5.2-2.6-1.1-2.9-1.4"/><path d="M106 99.8c-.2 0-.3.1-.4.2 0 .2.2.4.4.4.1 0 .2-.1.2-.2.1-.2 0-.3-.2-.4"/><path d="M106 100.5c-.3 0-.5-.2-.5-.4.1-.2.3-.3.5-.3s.4.2.4.4-.2.3-.4.3c.1 0 .1 0 0 0zm-.3-.5c.1.2.1.3.3.3 0 0 .1 0 .1-.2 0-.1-.1-.3-.2-.3 0 .1-.1.1-.2.2zM106.3 97.3c0-.2-.1-.2-.5-.2-.1 0-.1.1-.1.2 0 .2.2.3.4.3.2-.1.2-.2.2-.3"/><path d="M106.1 97.6c-.2 0-.5-.1-.5-.3 0-.1.1-.2.2-.3.2 0 .3 0 .5.1.1 0 .1.1.1.2s0 .2-.1.2c-.1.1-.1.1-.2.1m-.1-.4h-.1s-.1 0-.1.1c0 .2.2.2.3.2h.1v-.1s0-.1-.1-.1c0-.1-.1-.1-.1-.1zM107.5 98.4c-.2.1-.2.2-.1.4 0 .1.1.2.2.1.3-.1.3-.3.2-.5h-.3"/><path d="M107.5 99.1c-.1 0-.2-.1-.2-.2-.1-.2-.1-.4.1-.5h.4c.1 0 .1.1.1.1.1.2 0 .5-.2.5h-.1l-.1.1c.1 0 0 0 0 0m0-.6c-.1 0-.1.2-.1.3v.1c.2-.1.2-.2.2-.4h-.1zM106.6 101.4c-.1 0-.3.1-.3.2v.1c0 .1.1.2.2.2.2 0 .3-.1.3-.3.1-.2-.1-.2-.2-.2"/><path d="M106.6 101.9c-.1 0-.1 0-.2-.1-.1 0-.1-.1-.1-.2s0-.2.1-.3c.1-.1.2-.1.3-.1.2 0 .3.1.4.3 0 .1 0 .2-.1.2-.2.2-.3.2-.4.2m0-.4h-.1s-.1.1 0 .1c0 0 0 .1.1.1h.1c.1 0 .1 0 .2-.1v-.1c-.1 0-.2-.1-.3 0z"/><path style="fill:none;stroke:#000;stroke-width:1.098;stroke-linecap:round;stroke-linejoin:round" d="M99 87.8c0-.4 3.4-.8 7.5-.8s7.5.3 7.5.8"/></svg>