<svg xmlns="http://www.w3.org/2000/svg" width="100" height="140" style="enable-background:new 0 0 100 140" xml:space="preserve"><path style="fill:none;stroke:#fff;stroke-miterlimit:10" d="M8 76.1c-2.2 2.7-2.6 6.5-1 9.7 1.6 3.1 4.3 5.5 7.7 6.6 1.1.4 9.4.3 9.3-4.4s-3.4-8.5-3.8-9-5.9-4.3-7.3-4.4c-1.4.1-2.5-.7-4.9 1.5z"/><path style="fill:none;stroke:#fff;stroke-miterlimit:10" d="M43.3 84.7c-1.4-.1-3.6-.4-4.2-1.1-.9-1-4.1 1.3-5.3 2-1.2.6-3.9.4-5.6.7-1.7.3-3.4 1.9-4.5 3.2M10 74.8c1.5-.9 3.2-1.4 5-1.7 2.7-.6 5.3-1.7 7.5-3.4.8-.7 3.6-4.5 8.5-5.7 2.4-.5 4.7-1.4 6.7-2.9.9-.4 2.8-1.2 7.4-1.3 3.1-.2 6-1.8 7.8-4.3.1-.4 4.1-4 4.6-4.9 1.1-1.5 2.6-2.7 4.2-3.6 1.6-.7 3.7-3 4.5-3.7s6.8-5.1 9.1-4.2 2.6 2.9 3.6 3.5 3.2.3 3.5 1c.3 1.3.9 2.5 1.7 3.5 1.3 1.4 4.4 5.1 1.2 9.1s-3.5 3.9-3.5 5c0 .7-.2 1.3-.7 1.8 0 0 4.7-.1 7 1.9s3.5 2.7 3.9 2.7 1.8 2.5 1.5 4.7c-.3 2.2-5.2 9.7-5.2 9.7-2 2.3-4.9 3.5-8 3.4"/><path style="fill:none;stroke:#fff;stroke-miterlimit:10" d="M21.9 70.1c.1-1.5-.5-2.9-1.5-4-1.7-1.4-1.6-2-.5-3.2 1.1-1.1 1.7-2.6 1.6-4.2.1-2.1 1.6-2.6 3.1-3.2 2-1.2 3.8-2.7 5.4-4.5.8-1 4.5-1.9 7-.7s5.3 2.2 5.2 3.6c-.2 1.4-1.7 4.6-1.4 6.3M81.2 63.1c-1.8.4-3.5.6-5.3.7-2.8.2-6-.8-7.4 0-1.4.8-2.4 1.4-3.3 1.4 0 0 2.3-2.7 2.3-5.3s-3-4-2.9-5.5M43.3 84.7s-6.3 4-5.8 8.7c.6 5.8 12.4 3.1 12.4 3.1s14-4.2 18.5-12.5-9-6.5-9-6.5-7.3.9-16.1 7.2z"/><path style="fill:none;stroke:#fff;stroke-miterlimit:10" d="m37.8 94.4 1.8 4.4s2.3 5.2 17.4-1.7 13.5-13 13.5-13l-1.4-4"/><path style="fill:none;stroke:#fff;stroke-miterlimit:10" d="M59.1 96s6.2.1 9.3-.2 10.9-2.5 13.2-6.1-1.6-4.6-4-5.2-7.5-1.6-7.5-1.6"/><path style="fill:none;stroke:#fff;stroke-miterlimit:10" d="M82.3 87.8s.9 3.7 0 4.8c-3 3.4-7.2 5.5-11.7 6-6.4.4-10.6-.2-12.4 0-1.3.1-2.7 0-4-.3M68 64.1s2.3-2.8 1.7-5-1.7-3.2-1.7-4.4M70.7 63.5s2.2-2.2 1.6-4.1c-.3-1.1-.6-2.2-.8-3.3M40.2 60.4c-1.2-.7-2.1-2-2.4-3.4-.6-2.5-1.9-2.9-2.9-3.1M38.9 60.7s-2.8-.1-3.1-1.3c-.5-1.4-1.8-2.3-3.3-2.3M39.1 83.6c-.6-1.6-.7-3.5-.2-5.1.9-2.8-.4-3.9-.4-3.9M41 84.4s-.9-2.8-.5-4.3"/></svg>