<svg xmlns="http://www.w3.org/2000/svg" width="100" height="140" style="enable-background:new 0 0 100 140" xml:space="preserve"><path style="fill:none;stroke:#fff;stroke-linecap:round;stroke-miterlimit:10" d="M31.8 128.8s10.4-12.3 12-42.1c.4-7.7 1.3-15.3 2.8-22.8 0 0 .8-2.9 1.3-5.8 0 0-1.4-6.4-1.1-9.4.4-2.9.9-8.3.5-10"/><path style="fill:none;stroke:#fff;stroke-linecap:round;stroke-miterlimit:10" d="M47.9 58.1c-2.2-3.1-3.7-6.7-4.3-10.5-.7-5.8 2.2-20.1 3.1-22.8s1.5-4.1 3.1-.6c1.6 3.6 3.1 11 2.7 14.4-.4 3.4-1.6 15.2-4.6 19.5zM28.9 70.7c-.3 1.5-.6 3-.7 4.6-.1 1.5-.4 2.9-.9 4.3-.4 3.2-.4 6.4 0 9.5.6 2.8 4.2 12.1 7.1 12.2s2.5-14.2 2.5-14.2.2-2.8-1.7-7.4-2.2-11.4-5-10.7c-.7.3-1.2 1-1.3 1.7z"/><path style="fill:none;stroke:#fff;stroke-linecap:round;stroke-miterlimit:10" d="M39.3 113.2s-2-4.8-4.9-11.9-2.7-16.8-2.7-16.8M48.8 92.8c1-1.8 1.1-4.1 2.8-6.4.9-1.2 7.2-7.2 11.1-9 3.9-1.8 4.7-.9 4.4 1.6-.5 3.5-3.7 11.4-5.3 12.8-1.6 1.5-3.1 3.1-4.4 4.8-1.1 1.3-2.6 2.2-4.3 2.5-1.2.1-2.8 3.5-5 2.1 0 .1-3.2-1.5.7-8.4z"/><path style="fill:none;stroke:#fff;stroke-linecap:round;stroke-miterlimit:10" d="M39.7 112c3.2-3.3 6-6.9 8.4-10.7 3.8-6.1 10.7-16.2 11.6-16.8M50.1 80.4S48.5 76.3 53 71c2.6-3 4.3-5.9 7.6-6.5s5.2-3.9 6.8-4.4 2.9 0 1.5 3.4-3 5-3.4 6.1c-1 3-7.1 10.1-9.3 10.4s-3 3.2-6.1.4z"/><path style="fill:none;stroke:#fff;stroke-linecap:round;stroke-miterlimit:10" d="M43.6 89.6s6.2-10.4 10.7-14.4c4.5-3.9 9.1-8.3 9.2-8.8M33.5 44.8s-1.8 16.3 1.7 22.3 5.9 8.3 7.1 8.1c1.2-.2 1.8-10.9 1.1-14.5-.5-3.7-3.5-10.8-4.4-11.5-1.8-1.2-2.6-3.6-3-4.3-.5-.8-2.2-2.7-2.5-.1z"/><path style="fill:none;stroke:#fff;stroke-linecap:round;stroke-miterlimit:10" d="M44.1 81.6s-.8-3.2-1.8-6.4-5.5-15.7-5.5-19.1M53 55.8s-.1-7.6 3.3-12.8 4.6-6.9 6.8-7.8c2.3-1 6.7-4 7-4.6s2.8-1.5 2.1 1.7c-.6 3.2-3.8 7-4.4 9.2s-1.1 4.7-3.1 6.5c-2.1 1.9-4 3.6-4.5 4.7s-3.7 4.4-7.2 3.1z"/><path style="fill:none;stroke:#fff;stroke-linecap:round;stroke-miterlimit:10" d="M45.9 67.8s4-7.4 7.1-12 8.2-9.5 8.8-11.8M51.2 48s13.3-19.4 13.6-27 1.4-10.9-1.7-9.3c-3 1.5-6 9.6-7.1 11.3-2 2.4-3.4 5.3-4 8.4"/><path style="fill:none;stroke:#fff;stroke-linecap:round;stroke-miterlimit:10" d="M45.7 68.8C51.5 56.1 51.2 48 51.2 48s1.4-8.2 2.7-10.7c1.2-2.4 4.2-7.6 5-11.1"/></svg>