<svg xmlns="http://www.w3.org/2000/svg" width="100" height="140" style="enable-background:new 0 0 100 140" xml:space="preserve"><path style="fill:none;stroke:#fff;stroke-miterlimit:10" d="M41 128.8s-10.5-29.4 23.5-95"/><path style="fill:none;stroke:#fff;stroke-miterlimit:10" d="M62.3 38.3s-3.3-8.5 2.1-15.2l.5 2.1 3.7-6.6v2.5l3.5-5.5v2l4.4-4.3v1.8l3.3-3.5-.5 1.9 2.6-2.5-1.5 3.5 1.3-.4-2.2 3.1 1.4.2-2.5 3.4 1.6.4-3 3.4h1.6l-2.6 2h1L72.8 31l1.9-.2c0-.1-5.7 6.8-12.4 7.5z"/><path style="fill:none;stroke:#fff;stroke-miterlimit:10" d="M64 34.8s6-11.2 9.9-13.4M59.6 43.5s-2.2-8.3-2.7-8.9l-.7.7-1.6-4.2-.6.8-2.2-3V30L49 26.8v.7l-3.6-2.9v1l-2.8-2.4-.2.7s-3.2-2.3-4.3-2.5c1.2 1.5 2.3 3.1 3.4 4.7l-.6.4 1.8 2.1-.6.4 2.7 3.6-.5.4 2.9 3-1 .3 4.3 3-.8.4c3 2 6.3 3.3 9.9 3.8z"/><path style="fill:none;stroke:#fff;stroke-miterlimit:10" d="M59.6 43.5s-13-15.6-15.3-16.8M59.7 43.5s7.8-3.3 8.6-3.2l-.1 1 4.2-1.3-.2 1 3.7-.1-.9.6 4.2.3-.6.5 4.4 1.1-.8.6 3.6.9-.5.5s3.7 1.1 4.5 2c-1.9-.1-3.8 0-5.7.2v.7l-2.8-.2v.7l-4.3-.1.2.8-4.1-.5.3.9-4.9-1.6.2.8c-.1 0-4.2-1.1-9-5.6z"/><path style="fill:none;stroke:#fff;stroke-miterlimit:10" d="M59.7 43.5s20 1 22.4 2.2M53.1 57.8s-3.6-7.8-4.2-8.3l-.6.8-2.2-3.8-.5.9-2.6-2.6.2 1.1-3.3-2.7.2.7-4-2.2.2 1-3.2-1.8v.7s-3.5-1.7-4.7-1.6c1.5 1.3 2.9 2.6 4.2 4l-.5.5 2.2 1.8-.5.5 3.3 3.1-.7.5 3.4 2.5-.9.4 4.7 2.1-.7.5c3.2 1.3 6.7 2 10.2 1.9z"/><path style="fill:none;stroke:#fff;stroke-miterlimit:10" d="M53.1 57.8s-15.5-13-18-13.7M53.3 58.1s7.8-3.3 8.6-3.2l-.1 1 4.2-1.3-.2 1 3.7-.1-.9.7 4.2.3-.6.5 4.4 1.1-.8.6 3.6.9-.5.5s3.7 1.1 4.5 2c-1.9-.1-3.8 0-5.7.2v.7l-2.8-.2v.7l-4.5.1.2.8-4.1-.5.3.9-4.9-1.6.1.8c-3.1-1.5-6.2-3.4-8.7-5.9z"/><path style="fill:none;stroke:#fff;stroke-miterlimit:10" d="M53.3 58.1s20 1 22.4 2.2M48 72.8s-5.2-6.8-5.9-7.1l-.4.9-3-3.3-.3 1-3.2-1.9.4 1-3.8-1.9.3.7-4.4-1.3.4 1-3.5-1.1.1.7s-3.8-.9-4.9-.6c1.7.9 3.3 1.9 4.9 3l-.4.6 2.5 1.2-.4.6 3.9 2.3-.3.5 3.9 1.6-.8.6 5.1 1.1-.6.7s4.1 1.2 10.4-.3z"/><path style="fill:none;stroke:#fff;stroke-miterlimit:10" d="M48 72.8s-17.9-9.2-20.5-9.4M47.9 72.7s7.8-3.3 8.6-3.2l-.1 1 4.2-1.3-.2 1 3.7-.1-.9.7 4.2.3-.6.5 4.4 1.1-.8.6 3.6.7-.5.5s3.7 1.1 4.5 2c-1.9-.1-3.8 0-5.7.2v.7l-2.8-.2v.7L65 78l.2.8-4.1-.5.4.9-4.9-1.6.1.8c.1-.1-4-1.2-8.8-5.7z"/><path style="fill:none;stroke:#fff;stroke-miterlimit:10" d="M47.9 72.7s20 1 22.4 2.2M43.5 88.7s-5.6-6.5-6.3-6.7l-.4.9-3.2-3.1-.2 1-3.3-1.7.5 1-3.9-1.6.3.7-4.5-1 .5.9-3.6-.8.2.7s-3.8-.6-4.9-.3c1.7.8 3.4 1.7 5.1 2.7l-.3.6 2.6 1.1-.4.6 4 2-.6.6 3.9 1.4-.8.7 5.1.7-.3.5c0 .1 4.2 1.1 10.5-.9z"/><path style="fill:none;stroke:#fff;stroke-miterlimit:10" d="M43.5 88.7s-18.4-8.1-21-8.1M43.5 88.7s7.8-3.3 8.6-3.2l-.1 1 4.2-1.3-.2 1 3.7-.1-.9.7 4.2.3-.6.5 4.4 1.1-.8.4 3.6.9-.5.5s3.7 1.1 4.5 2c-1.9-.1-3.8 0-5.7.2v.7l-2.8-.2v.7l-4.5.1.2.8-4.1-.5.4.9-4.9-1.6.1.8c0-.2-4.1-1.2-8.8-5.7z"/><path style="fill:none;stroke:#fff;stroke-miterlimit:10" d="M43.5 88.7s20 1 22.4 2.2M40.4 105.8s-6.1-6-6.8-6.2l-.3 1-3.4-2.8-.1 1-3.4-1.5.5 1-4-1.3.4.6-4.5-.6.5.9-3.6-.5.3.7s-3.9-.3-4.9.2c1.8.6 3.6 1.4 5.3 2.2l-.4.5 2.7.9-.3.6 4.2 1.7-.5.7 4 1-.7.7 5.2.3-.5.7c-.1.1 4.2.6 10.3-1.8z"/><path style="fill:none;stroke:#fff;stroke-miterlimit:10" d="M40.4 105.8s-19-6.5-21.6-6.3M40.4 105.8s7.8-3.3 8.6-3.2l-.1 1 4.2-1.3-.3 1 3.7-.1-.9.7 4.2.3-.6.5 4.4 1.1-.8.6 3.6.9-.5.5s3.7 1.1 4.5 2c-1.9-.1-3.8 0-5.7.2v.7l-2.8-.2.1.7-4.5.1.3.8-4.1-.5.4.9-4.9-1.6.2.8c-.2-.3-4.3-1.4-9-5.9z"/><path style="fill:none;stroke:#fff;stroke-miterlimit:10" d="M40.4 105.8s20 1 22.4 2.2"/></svg>